<svg width="720" height="280" viewBox="0 0 720 280" fill="none" xmlns="http://www.w3.org/2000/svg" role="img" aria-labelledby="title desc">
  <title id="title">Hostel Issue Reporter</title>
  <desc id="desc">A refined hostel issue reporter logo with a building, maintenance tool, shield check, and alert symbol.</desc>
  <g fill="#0F172A">
    <path d="M174 118.5V78.8L225 50l50.8 28.8v69h-18.4V89.4L225 71l-32.6 18.4v29.1H174Z"/>
    <path d="M202.7 98.4h14.5v18.8h-14.5V98.4Zm30.1 0h14.5v18.8h-14.5V98.4Zm-30.1 31.8h14.5V149h-14.5v-18.8Zm30.1 0h14.5V149h-14.5v-18.8Z"/>
    <path d="M318.2 84.8 371 64.6l52.8 20.2v41.9c0 37.6-24.1 65.1-52.8 76.4-28.7-11.3-52.8-38.8-52.8-76.4V84.8Zm19.1 13.2v28.7c0 27.7 16.1 47.8 33.7 56.1 17.6-8.3 33.7-28.4 33.7-56.1V98L371 85.1 337.3 98Z"/>
    <path d="m358.8 130.3 12.1 12.1 37.2-37.2 13.6 13.6-50.8 50.8-25.7-25.7 13.6-13.6Z"/>
    <path d="M468.8 126.6c0-24.3 19.7-44 44-44s44 19.7 44 44-19.7 44-44 44-44-19.7-44-44Zm18.1 0c0 14.3 11.6 25.9 25.9 25.9s25.9-11.6 25.9-25.9-11.6-25.9-25.9-25.9-25.9 11.6-25.9 25.9Z"/>
    <path d="M503.8 101.3h18l-3 34.9h-12l-3-34.9Zm1.4 43.4c0-4.2 3.3-7.3 7.6-7.3 4.2 0 7.5 3.1 7.5 7.3s-3.3 7.4-7.5 7.4c-4.3 0-7.6-3.2-7.6-7.4Z"/>
    <path d="M167.2 151.5 135.8 120c-7.1 1.9-15 .1-20.6-5.5-5.8-5.8-7.4-14.2-4.9-21.5l14.1 14.1 13.6-13.6-14.1-14.1c7.3-2.4 15.7-.8 21.5 5 5.6 5.6 7.4 13.5 5.5 20.6l31.4 31.4 14.8-14.8-12.1-12.1 13.6-13.6 39.1 39.1-13.6 13.6-12.1-12.1-14.8 14.8 31.4 31.4c7.1-1.9 15-.1 20.6 5.5 5.8 5.8 7.4 14.2 4.9 21.5L240 195.7l-13.6 13.6 14.1 14.1c-7.3 2.5-15.7.8-21.5-4.9-5.6-5.6-7.4-13.5-5.5-20.6l-31.4-31.4-28.4 28.4c-5.6 5.6-14.7 5.6-20.3 0-5.6-5.6-5.6-14.7 0-20.3l33.8-23.1Zm-19.7 31.1 24.1-24.1-8-8-24.1 24.1c-2.2 2.2-2.2 5.8 0 8 2.2 2.2 5.8 2.2 8 0Z"/>
  </g>
  <g fill="#0F172A">
    <path d="M72 230v-38h10.2v14.5h14.2V192h10.2v38H96.4v-15H82.2v15H72Zm59.1.7c-11.8 0-20.6-8.4-20.6-19.7s8.8-19.7 20.6-19.7c11.9 0 20.7 8.4 20.7 19.7s-8.8 19.7-20.7 19.7Zm0-8.9c6.1 0 10.3-4.5 10.3-10.8s-4.2-10.8-10.3-10.8c-6 0-10.2 4.5-10.2 10.8s4.2 10.8 10.2 10.8Zm39.8 8.9c-8.1 0-14.6-3.1-18.2-8.4l6.7-6.1c2.7 3.7 6.7 5.9 11.5 5.9 3.6 0 5.8-1.2 5.8-3.3 0-2-1.6-3-6.7-4.2-10.1-2.3-15.3-5.9-15.3-12.2 0-6.8 6.4-11.1 15.7-11.1 7.3 0 12.7 2.4 16.4 7l-6.3 6.1c-2.3-3-5.6-4.6-10-4.6-3.3 0-5.4 1.1-5.4 3 0 1.8 1.8 2.8 7.2 4.1 9.4 2.2 14.8 5.8 14.8 12.2 0 7.1-6.2 11.6-16.2 11.6Zm28.8-.7v-29.2h-11.4V192h33v8.8h-11.4V230h-10.2Zm25.5 0v-38h28.9v8.6h-18.7v6.3h16.4v8.1h-16.4v6.4h19.1v8.6h-29.3Zm34.6 0v-38H270v29.2h18.2v8.8h-28.4Zm50.4 0v-38h10.2v38h-10.2Zm30.6.7c-8.1 0-14.6-3.1-18.2-8.4l6.7-6.1c2.7 3.7 6.7 5.9 11.5 5.9 3.6 0 5.8-1.2 5.8-3.3 0-2-1.6-3-6.7-4.2-10.1-2.3-15.3-5.9-15.3-12.2 0-6.8 6.4-11.1 15.7-11.1 7.3 0 12.7 2.4 16.4 7l-6.3 6.1c-2.3-3-5.6-4.6-10-4.6-3.3 0-5.4 1.1-5.4 3 0 1.8 1.8 2.8 7.2 4.1 9.4 2.2 14.8 5.8 14.8 12.2 0 7.1-6.2 11.6-16.2 11.6Zm34.9 0c-8.1 0-14.6-3.1-18.2-8.4l6.7-6.1c2.7 3.7 6.7 5.9 11.5 5.9 3.6 0 5.8-1.2 5.8-3.3 0-2-1.6-3-6.7-4.2-10.1-2.3-15.3-5.9-15.3-12.2 0-6.8 6.4-11.1 15.7-11.1 7.3 0 12.7 2.4 16.4 7l-6.3 6.1c-2.3-3-5.6-4.6-10-4.6-3.3 0-5.4 1.1-5.4 3 0 1.8 1.8 2.8 7.2 4.1 9.4 2.2 14.8 5.8 14.8 12.2 0 7.1-6.2 11.6-16.2 11.6Zm36.6-.7c-10.3 0-16.2-5.8-16.2-15.6V192h10.2v22.1c0 4.8 2.5 7.7 6.1 7.7 3.7 0 6.1-2.9 6.1-7.7V192h10.2v22.4c0 9.8-6 15.6-16.4 15.6Zm22.9 0v-38h28.9v8.6h-18.7v6.3h16.4v8.1h-16.4v6.4h19.1v8.6h-29.3Zm54.8 0v-38h16.7c8.5 0 14.3 5 14.3 12.7 0 5.2-2.7 9.2-7.1 11.2l8.2 14.1h-11.4l-6.9-12.3h-3.6V230H490Zm10.2-20.3h5.5c3.6 0 5.8-1.8 5.8-4.9s-2.2-5-5.8-5h-5.5v9.9Zm28.1 20.3v-38h28.9v8.6h-18.7v6.3h16.4v8.1h-16.4v6.4h19.1v8.6h-29.3Zm34.6 0v-38h16.5c8.5 0 14.6 5.3 14.6 13.3s-6.1 13.2-14.6 13.2h-6.3V230h-10.2Zm10.2-19.1h5.5c3.5 0 5.6-2.1 5.6-5.6s-2.1-5.7-5.6-5.7h-5.5v11.3Zm46.1 19.8c-11.8 0-20.6-8.4-20.6-19.7s8.8-19.7 20.6-19.7c11.9 0 20.7 8.4 20.7 19.7s-8.8 19.7-20.7 19.7Zm0-8.9c6.1 0 10.3-4.5 10.3-10.8s-4.2-10.8-10.3-10.8c-6 0-10.2 4.5-10.2 10.8s4.2 10.8 10.2 10.8Zm25.4 8.2v-38h16.7c8.5 0 14.3 5 14.3 12.7 0 5.2-2.7 9.2-7.1 11.2l8.2 14.1h-11.4l-6.9-12.3h-3.6V230h-10.2Zm10.2-20.3h5.5c3.6 0 5.8-1.8 5.8-4.9s-2.2-5-5.8-5h-5.5v9.9Zm35 20.3v-29.2h-11.4V192h33v8.8h-11.4V230h-10.2Z"/>
  </g>
</svg>
