<svg width="64" height="64" viewBox="0 0 64 64" fill="none" xmlns="http://www.w3.org/2000/svg" role="img" aria-label="Hostel Issue Reporter mark">
  <rect width="64" height="64" rx="14" fill="#0F172A"/>
  <path d="M17 29V16.8L30.5 9l13.4 7.8v16.7h-5.2V19.9l-8.2-4.8-8.3 4.8V29H17Z" fill="#FFFFFF"/>
  <path d="M25.3 23.4h3.2v4.1h-3.2v-4.1Zm7.1 0h3.2v4.1h-3.2v-4.1Z" fill="#FFFFFF"/>
  <path d="m21.7 41.6-7.5-7.5c-1.8.3-3.7-.2-5.1-1.6-1.4-1.4-2-3.5-1.5-5.3l3.4 3.4 3.4-3.4-3.4-3.4c1.8-.5 3.8.1 5.3 1.5 1.4 1.4 1.9 3.3 1.6 5.1l7.5 7.5 4.2-4.2 3.7 3.7-4.2 4.2 7.5 7.5c1.8-.3 3.7.2 5.1 1.6 1.4 1.4 2 3.5 1.5 5.3l-3.4-3.4-3.4 3.4 3.4 3.4c-1.8.5-3.8-.1-5.3-1.5-1.4-1.4-1.9-3.3-1.6-5.1l-7.5-7.5-6.1 6.1c-1.4 1.4-3.6 1.4-5 0-1.4-1.4-1.4-3.6 0-5l7.4-4.8Z" fill="#FFFFFF"/>
  <path d="M35.6 18.9 48 14.2l12.4 4.7v9.9c0 8.8-5.6 15.3-12.4 18-6.8-2.7-12.4-9.2-12.4-18v-9.9Zm5 3.2v6.7c0 6.3 3.5 10.9 7.4 13 3.9-2.1 7.4-6.7 7.4-13v-6.7L48 19.3l-7.4 2.8Z" fill="#FFFFFF"/>
  <path d="m45.3 30.1 2.7 2.7 8-8 3.5 3.5L48 39.8l-6.2-6.2 3.5-3.5Z" fill="#FFFFFF"/>
</svg>
